<?xml version="1.0" encoding="iso-8859-1"?>
<!-- Generator: Adobe Illustrator 19.0.0, SVG Export Plug-In . SVG Version: 6.00 Build 0)  -->
<svg version="1.1" id="Layer_1" xmlns="http://www.w3.org/2000/svg" xmlns:xlink="http://www.w3.org/1999/xlink" x="0px" y="0px"
	 viewBox="0 0 318.036 318.036" style="enable-background:new 0 0 318.036 318.036;" xml:space="preserve">
<g>
	<g>
		<rect x="97.858" y="162.754" style="fill:#4C3626;" width="121.771" height="73.568"/>
		<path style="fill:#E8C59E;" d="M295.136,252.583c-10.522-37.754-63.361-33.566-86.164-44.408
			c-22.803-10.842-19.245-47.219-22.134-53.548H131.2c-2.889,6.329,0.674,42.711-22.134,53.548
			c-22.803,10.842-75.642,6.655-86.164,44.408c-5.806,20.824-5.525,27.187-7.133,50.26c0,0,72.5,15.187,141.611,15.187
			s144.888-15.187,144.888-15.187C300.666,279.77,300.942,273.407,295.136,252.583z"/>
		<path style="fill:#DDB58E;" d="M179.508,216.487c22.803,10.842,75.642,6.655,86.164,44.408c5.531,19.83,5.542,26.552,6.913,47.073
			c18.155-2.816,29.682-5.126,29.682-5.126c-1.602-23.067-1.326-29.435-7.133-50.26c-10.522-37.754-63.361-33.566-86.164-44.408
			c-22.803-10.842-19.245-47.219-22.134-53.548h-29.458C157.38,154.627,156.7,205.651,179.508,216.487z"/>
		<path style="fill:#E0605C;" d="M302.268,302.842c-0.821-11.82-1.152-19.256-2.057-26.496c-11.59,4.333-23.134,7.914-45.516,9.482
			c-3.828-16.918-5.536-33.769-6.301-46.027c-0.556-8.982-0.68-16.603-0.674-21.814c-2.782-0.646-5.564-1.237-8.313-1.804
			c-0.039,5.283,0.045,13.72,0.68,24.023c0.804,13.04,2.659,31.127,6.902,49.22c0,0-33.358,14.788-88.648,14.788
			s-88.648-14.788-88.648-14.788c4.244-18.087,6.093-36.18,6.902-49.22c0.624-10.123,0.719-18.447,0.68-23.741
			c-2.754,0.573-5.536,1.18-8.313,1.844c0,5.199-0.129,12.691-0.674,21.499c-0.759,12.264-2.473,29.109-6.301,46.027
			c-21.549-1.512-33.055-4.884-44.223-9.004c-0.86,7.093-1.192,14.456-1.995,26.018c0,0,72.5,15.187,141.611,15.187
			S302.268,302.842,302.268,302.842z"/>
		<path style="fill:#D15852;" d="M247.726,217.982c-2.782-0.646-5.564-1.237-8.313-1.804c-0.028,4.008,0.011,9.83,0.309,16.901
			c3.001,1.338,5.874,2.85,8.555,4.592C247.821,229.611,247.72,222.777,247.726,217.982z"/>
		<path style="fill:#CCA281;" d="M123.718,192.223c9.229,7.959,20.054,15.85,35.241,18.132
			c15.237-2.288,26.023-10.342,35.269-18.334c-7.689-14.973-5.311-32.83-7.391-37.4h-55.638
			C129.114,159.196,131.441,177.244,123.718,192.223z"/>
		<g>
			
				<ellipse transform="matrix(-0.177 0.9842 -0.9842 -0.177 379.2988 -81.9244)" style="fill:#DDB58E;" cx="223.902" cy="117.623" rx="21.386" ry="11.629"/>
			
				<ellipse transform="matrix(-0.9842 0.177 -0.177 -0.9842 207.2613 216.7702)" style="fill:#E8C59E;" cx="93.962" cy="117.629" rx="11.629" ry="21.386"/>
			<path style="fill:#E8C59E;" d="M92.799,67.575c-0.793,19.02,0.124,21.712-0.028,26.181
				c-1.551,44.156,7.464,104.645,66.171,113.48c62.979-9.476,68.808-77.969,65.727-122.456c-0.422-6.115-2.254-19.369-9.499-23.342
				C196.173,51.005,93.608,48.161,92.799,67.575z"/>
			<path style="fill:#DDB58E;" d="M158.942,207.236c94.331-14.192,60.45-160.806,60.45-160.806h-14.141
				c3.873,61.242,9.229,93.774-13.006,129.24C174.63,203.773,158.942,207.236,158.942,207.236z"/>
		</g>
		<path style="fill:#6B4627;" d="M232.123,215.998c-6.464-27.356,18.655-24.927,8.004-123.378
			C228.975-10.49,173.241,4.674,173.241,4.674s-34.426-18.239-71.921,17.34c-34.19,32.442-27.592,126.84-27.85,151.712
			c-0.304,28.688-5.823,24.264-12.135,55.363c-6.121,30.171,4.547,48.585,4.547,48.585c-4.103-48.242,15.541-70.314,15.541-70.314
			c1.849,28.513-10.932,63.53-14.726,103.914c8.937,1.208,18.683,2.383,28.929,3.412c6.745-24.006,18.301-49.9,25.085-75.8
			c10.943-41.778-14.422-53.216-8.954-112.901s58.977-68.673,58.977-68.673c21.19,15.552,37.231,35.505,38.007,70.662
			c1.602,72.759-23.196,88.716-24.759,108.36c-1.855,23.326,10.263,19.391,12.253,67.133c0.185,4.485-0.011,8.897-0.528,13.214
			c14.119-0.939,27.873-2.276,40.558-3.76C245.286,273.497,236.215,233.31,232.123,215.998z"/>
	</g>
</g>
<g>
</g>
<g>
</g>
<g>
</g>
<g>
</g>
<g>
</g>
<g>
</g>
<g>
</g>
<g>
</g>
<g>
</g>
<g>
</g>
<g>
</g>
<g>
</g>
<g>
</g>
<g>
</g>
<g>
</g>
</svg>
